<svg width="28" height="28" viewBox="0 0 28 28" fill="none" xmlns="http://www.w3.org/2000/svg">
<g id="icon">
<path id="&#237;&#140;&#168;&#236;&#138;&#164; 11291" d="M6.68213 11.9129H4.58972C4.74276 9.95352 5.61874 8.10173 7.07169 6.66611C8.52464 5.23049 10.4668 4.29774 12.5745 4.02331C14.6822 3.74887 16.8282 4.14932 18.6548 5.15792C20.4814 6.16652 21.8783 7.72236 22.6128 9.56616C22.7101 9.8091 22.9081 10.0064 23.163 10.1147C23.418 10.2229 23.7091 10.2333 23.9724 10.1434C24.2356 10.0536 24.4494 9.87091 24.5667 9.6356C24.684 9.40028 24.6952 9.1316 24.5979 8.88865C23.6712 6.57619 21.896 4.63641 19.5806 3.40636C17.2653 2.17631 14.5562 1.73372 11.924 2.15549C9.29182 2.57726 6.90292 3.83674 5.17238 5.71509C3.44184 7.59344 2.47902 9.97195 2.45121 12.4374C1.80797 12.78 1.27372 13.2728 0.902092 13.8662C0.530464 14.4597 0.334538 15.1329 0.333984 15.8183L0.333984 19.1388C0.335158 20.1744 0.781477 21.1674 1.57501 21.8997C2.36853 22.632 3.44445 23.044 4.56667 23.045H6.68213C6.82103 23.045 6.95857 23.0198 7.0869 22.9707C7.21523 22.9217 7.33183 22.8498 7.43005 22.7591C7.52827 22.6685 7.60618 22.5609 7.65934 22.4424C7.71249 22.324 7.73985 22.1971 7.73985 22.0689V12.889C7.73985 12.6301 7.62841 12.3818 7.43005 12.1988C7.23169 12.0157 6.96265 11.9129 6.68213 11.9129ZM5.6244 21.0919H4.56667C4.00552 21.0915 3.4675 20.8855 3.07071 20.5194C2.67392 20.1532 2.4508 19.6566 2.45033 19.1388V15.8183C2.45103 15.3006 2.67426 14.8043 3.07102 14.4383C3.46778 14.0722 4.00568 13.8664 4.56667 13.866H5.6244V21.0919ZM23.1882 11.9129H21.0718C20.7918 11.9135 20.5234 12.0167 20.3256 12.1996C20.1278 12.3826 20.0168 12.6306 20.0168 12.889V23.0933C20.0154 23.3529 19.9026 23.6014 19.7033 23.7844C19.5039 23.9675 19.2341 24.0703 18.9528 24.0703H15.7256V24.1014C15.4984 23.7225 15.1413 23.424 14.7103 23.2528C14.2794 23.0816 13.799 23.0475 13.3447 23.1557C12.8904 23.264 12.4879 23.5085 12.2006 23.8508C11.9133 24.1931 11.7574 24.6138 11.7574 25.0469C11.7574 25.4799 11.9133 25.9006 12.2006 26.2429C12.4879 26.5852 12.8904 26.8297 13.3447 26.938C13.799 27.0462 14.2794 27.0121 14.7103 26.8409C15.1413 26.6697 15.4984 26.3712 15.7256 25.9923V26.0234H18.9528C19.7944 26.0226 20.6012 25.7137 21.1962 25.1645C21.7913 24.6153 22.126 23.8708 22.1269 23.0941V23.045H23.1846C24.3069 23.044 25.3828 22.632 26.1763 21.8997C26.9698 21.1674 27.4161 20.1744 27.4173 19.1388V15.8183C27.4159 14.7834 26.97 13.7911 26.1772 13.0591C25.3845 12.327 24.3096 11.9148 23.1882 11.9129ZM25.3045 19.1388C25.3041 19.6566 25.0809 20.1532 24.6841 20.5194C24.2874 20.8855 23.7493 21.0915 23.1882 21.0919H22.1305V13.866H23.1882C23.7493 13.8664 24.2874 14.0724 24.6841 14.4386C25.0809 14.8047 25.3041 15.3013 25.3045 15.8191V19.1388Z" fill="#333333"/>
</g>
</svg>
